<svg width="23" height="16" viewBox="0 0 23 16" fill="none" xmlns="http://www.w3.org/2000/svg">
<path id="Combined Shape" fill-rule="evenodd" clip-rule="evenodd" d="M20.5728 0.64081C21.5282 0.897797 22.2805 1.65501 22.5358 2.6166C22.9999 4.35936 22.9999 7.99566 22.9999 7.99566C22.9999 7.99566 22.9999 11.6318 22.5358 13.3749C22.2805 14.3363 21.5282 15.0935 20.5728 15.3506C18.8413 15.8176 11.8978 15.8176 11.8978 15.8176C11.8978 15.8176 4.95437 15.8176 3.22283 15.3506C2.26755 15.0935 1.51514 14.3363 1.25979 13.3749C0.795776 11.6318 0.795776 7.99566 0.795776 7.99566C0.795776 7.99566 0.795776 4.35936 1.25979 2.6166C1.51514 1.65501 2.26755 0.897797 3.22283 0.64081C4.95437 0.173767 11.8978 0.173767 11.8978 0.173767C11.8978 0.173767 18.8413 0.173767 20.5728 0.64081ZM15.4303 7.99489L9.62695 11.2962V4.6933L15.4303 7.99489Z" fill="black"/>
</svg>
