<svg width="22" height="21" viewBox="0 0 22 21" fill="none" xmlns="http://www.w3.org/2000/svg">
<g id="flogo-HexRBG-Wht-58">
<path id="Shape" d="M20.018 0.39856H1.91387C1.29265 0.39856 0.789055 0.902155 0.789055 1.52337V19.6275C0.789055 20.2487 1.29265 20.7523 1.91387 20.7523H11.6622V12.8965H9.00197V9.80056H11.648V7.54023C11.648 4.90852 13.2513 3.47662 15.5973 3.47662C16.3943 3.47899 17.1905 3.52428 17.9826 3.61231V6.35828H16.3615C15.0867 6.35828 14.8403 6.96175 14.8403 7.85089V9.81485H17.8933L17.497 12.8965H14.8403V20.7523H20.018C20.6392 20.7523 21.1428 20.2487 21.1428 19.6275V1.52337C21.1428 0.902155 20.6392 0.39856 20.018 0.39856Z" fill="black"/>
</g>
</svg>
