<svg width="274" height="27" viewBox="0 0 274 27" fill="none" xmlns="http://www.w3.org/2000/svg">
<path d="M20.6234 10.6931C20.8461 11.2278 20.8461 11.7178 20.6234 12.2079C20.6234 12.2525 20.5788 12.297 20.5343 12.3861L13.272 25.2622C13.0493 25.6632 12.7819 25.975 12.4255 26.1532C12.0245 26.376 11.6681 26.5542 11.2671 26.5542H9.57406C9.12853 26.5542 8.72754 26.4206 8.37111 26.1978C7.97013 25.975 7.70281 25.6632 7.52459 25.2622L0.26234 12.3416C0.217786 12.2525 0.173233 12.2079 0.173233 12.1634C-0.0495358 11.6733 -0.0495358 11.1832 0.128679 10.6931C0.351448 10.1585 0.663323 9.84659 1.15341 9.62382L3.02467 8.7773C3.55931 8.55453 4.09396 8.55453 4.6286 8.73274C5.16325 8.95551 5.51968 9.3565 5.787 9.89114L10.3315 19.0246H10.4206L14.9651 9.89114C15.1878 9.3565 15.5888 9.00007 16.1235 8.7773C16.6581 8.55453 17.1927 8.55453 17.7274 8.7773L19.6878 9.62382C20.0887 9.84659 20.4452 10.203 20.6234 10.6931Z" fill="#660099"/>
<path d="M29.4889 4.90091C29.3107 5.34644 29.0433 5.70287 28.7315 6.01475C28.4196 6.32663 28.0186 6.59395 27.6176 6.77216C27.1721 6.95038 26.7265 7.03948 26.2364 7.03948C25.7464 7.03948 25.3008 6.95038 24.8998 6.77216C24.4543 6.59395 24.0533 6.37118 23.7414 6.0593C23.4296 5.74743 23.1622 5.34644 22.984 4.90091C22.8058 4.45537 22.7167 4.00983 22.7167 3.51974C22.7167 3.02965 22.8058 2.58411 22.984 2.18313C23.1622 1.73759 23.4296 1.33661 23.7414 1.02474C24.0533 0.712859 24.4097 0.445537 24.8553 0.267322C25.3008 0.0891074 25.7464 0 26.2364 0C26.7265 0 27.1721 0.0891074 27.5731 0.267322C28.0186 0.445537 28.4196 0.712859 28.7315 1.02474C29.0433 1.33661 29.3107 1.73759 29.4889 2.13858C29.6671 2.58411 29.7562 3.02965 29.7562 3.51974C29.7562 4.00983 29.6671 4.45537 29.4889 4.90091ZM28.6423 9.44538C29.0879 9.89092 29.3107 10.4256 29.3107 11.0048V24.3263C29.3107 24.9055 29.0879 25.4402 28.6869 25.8411C28.2414 26.2867 27.7067 26.5095 27.1275 26.5095H25.3454C24.7662 26.5095 24.2315 26.2867 23.8305 25.8857C23.385 25.4402 23.1622 24.9055 23.1622 24.3263V11.0048C23.1622 10.4256 23.385 9.89092 23.786 9.48994C24.2315 9.0444 24.7662 8.82163 25.3454 8.82163H27.1275C27.7067 8.82163 28.2414 9.0444 28.6423 9.44538Z" fill="#660099"/>
<path d="M52.3456 10.693C52.5684 11.2276 52.5684 11.7177 52.3456 12.2078C52.3456 12.2523 52.3011 12.2969 52.2565 12.386L44.9942 25.3066C44.7715 25.7076 44.5042 26.0194 44.1477 26.1977C43.7467 26.4204 43.3903 26.5986 42.9893 26.5986H41.2963C40.8508 26.5986 40.4498 26.465 40.0933 26.2422C39.6924 26.0194 39.425 25.7076 39.2468 25.3066L31.9846 12.386C31.94 12.2969 31.8955 12.2523 31.8955 12.2078C31.6727 11.7177 31.6727 11.2276 31.8509 10.7375C32.0737 10.2029 32.3856 9.891 32.8756 9.66823L34.836 8.82171C35.3707 8.59894 35.9053 8.59894 36.4399 8.77715C36.9746 8.99992 37.331 9.40091 37.5983 9.93555L42.1428 19.0691H42.2319L46.6873 9.891C46.9101 9.35635 47.311 8.99992 47.8457 8.77715C48.3803 8.55438 48.915 8.55438 49.4496 8.77715L51.41 9.62367C51.8555 9.84644 52.2119 10.2029 52.3456 10.693Z" fill="#660099"/>
<path d="M66.3804 9.35565C67.4942 9.84575 68.4744 10.5141 69.2763 11.316C70.0783 12.118 70.7466 13.0982 71.1922 14.1675C71.6823 15.2813 71.905 16.4397 71.905 17.7318C71.905 18.9793 71.6823 20.1822 71.1922 21.2515C70.7021 22.3653 70.0338 23.3455 69.2318 24.1475C68.4298 24.9495 67.4496 25.6178 66.3804 26.0633C65.2665 26.5534 64.1081 26.7762 62.8606 26.7762C61.6131 26.7762 60.4547 26.5534 59.3409 26.0633C58.227 25.5732 57.2469 24.9049 56.4449 24.1029C55.6429 23.301 54.9746 22.3208 54.5291 21.2515C54.039 20.1377 53.8162 18.9793 53.8162 17.7318C53.8162 16.4842 54.039 15.2813 54.5291 14.212C55.0192 13.0982 55.6875 12.118 56.4894 11.316C57.2914 10.5141 58.2716 9.84574 59.3409 9.40021C60.4547 8.91012 61.6131 8.68735 62.8606 8.68735C64.1081 8.6428 65.3111 8.91012 66.3804 9.35565ZM64.2418 20.9396C64.6873 20.7614 65.0883 20.4941 65.4002 20.1822C65.7121 19.8703 65.9794 19.4693 66.1576 19.0684C66.3358 18.6228 66.4249 18.1773 66.4249 17.6872C66.4249 17.1971 66.3358 16.7516 66.1576 16.3506C65.9794 15.905 65.7121 15.5041 65.4002 15.1922C65.0883 14.8803 64.6873 14.613 64.2863 14.4348C63.8408 14.2566 63.3953 14.1675 62.9052 14.1675C62.4151 14.1675 61.9695 14.2566 61.5686 14.4348C61.123 14.613 60.722 14.8803 60.4102 15.1922C60.0983 15.5041 59.831 15.905 59.6528 16.306C59.4745 16.7516 59.3854 17.1971 59.3854 17.6872C59.3854 18.1773 59.4745 18.6228 59.6528 19.0238C59.831 19.4693 60.0983 19.8703 60.4102 20.1822C60.722 20.4941 61.123 20.7614 61.524 20.9396C61.9695 21.1178 62.4151 21.2069 62.9052 21.2069C63.3507 21.2069 63.7962 21.1178 64.2418 20.9396Z" fill="#660099"/>
<path d="M89.1464 17.3749C89.0127 16.9739 88.79 16.3056 88.7008 15.8155H88.6563C88.6563 16.2611 88.6117 16.9739 88.5672 17.3749L88.1217 25.0381C88.0325 26.0629 87.2306 26.7757 86.2058 26.6866L84.8247 26.5975C83.8445 26.5084 83.2653 25.751 83.3544 24.7708L84.7356 10.6027C84.8247 9.578 85.5821 8.82059 86.6514 8.82059H88.1662C89.1018 8.82059 89.9929 9.08791 90.3493 10.0235L93.4235 18.2214H93.5127L96.7205 10.0235C97.1661 8.95425 98.0571 8.59782 99.2155 8.73148L100.775 8.9097C101.621 8.9988 102.156 9.48889 102.245 10.6918L103.582 24.8154C103.671 25.751 102.913 26.5975 101.889 26.6421L100.686 26.6866C99.6611 26.7312 98.9036 26.0629 98.8145 25.0827L98.369 17.4195C98.3244 17.0185 98.3244 16.3502 98.3244 15.8601H98.2799C98.1908 16.3056 97.9235 17.0185 97.7453 17.4195L95.874 21.8748C95.6067 22.5877 95.0275 23.256 93.9582 23.256H92.7107C91.9087 23.256 91.1513 22.9441 90.7949 21.9639L89.1464 17.3749Z" fill="#660099"/>
<path d="M112.225 12.9209V15.5941H117.081C117.794 15.5941 118.329 16.1287 118.329 16.8416V18.1782C118.329 18.9356 117.794 19.4257 117.081 19.4257H112.225V22.4108H119.799C120.601 22.4108 121.18 22.99 121.18 23.7474V25.0395C121.18 25.7969 120.601 26.3761 119.799 26.3761H109.15C108.081 26.3761 107.19 25.5296 107.19 24.4157V11.2724C107.19 10.0249 108.215 8.9556 109.507 8.9556H119.754C120.556 8.9556 121.135 9.5348 121.135 10.2922V11.5843C121.135 12.3417 120.556 12.9209 119.754 12.9209H112.225Z" fill="#660099"/>
<path d="M135.17 10.3354C135.17 9.39978 135.972 8.77603 136.907 8.77603H138.511C139.447 8.77603 140.293 9.44434 140.293 10.3354V18.9343C140.293 24.1916 137.085 26.7312 132.006 26.7312C126.927 26.7312 124.165 24.2362 124.165 18.9343V10.3354C124.165 9.39978 124.967 8.77603 125.902 8.77603H127.506C128.442 8.77603 129.244 9.44434 129.244 10.3354V18.3996C129.244 21.162 129.957 22.4095 132.14 22.4095C134.368 22.4095 135.081 21.162 135.081 18.3996V10.3354H135.17Z" fill="#660099"/>
<path d="M156.11 24.949C156.11 25.8847 155.308 26.5084 154.372 26.5084H153.259C152.278 26.5084 151.476 25.8401 151.476 24.949V10.5136C151.476 9.578 152.278 8.77603 153.259 8.77603H154.907C155.754 8.77603 156.288 9.04335 156.823 9.80077L163.15 18.9343H163.239V10.3354C163.239 9.39978 163.996 8.77603 164.976 8.77603H166.046C167.07 8.77603 167.828 9.44434 167.828 10.3354V24.8154C167.828 25.7064 167.338 26.1965 166.758 26.3302L165.377 26.5975C164.174 26.8648 163.461 26.3302 162.838 25.4837L156.244 16.3502H156.155V24.949H156.11Z" fill="#660099"/>
<path d="M177.184 12.9209V15.5941H182.041C182.754 15.5941 183.288 16.1287 183.288 16.8416V18.1782C183.288 18.9356 182.754 19.4257 182.041 19.4257H177.184V22.4108H184.758C185.56 22.4108 186.14 22.99 186.14 23.7474V25.0395C186.14 25.7969 185.56 26.3761 184.758 26.3761H174.11C173.041 26.3761 172.15 25.5296 172.15 24.4157V11.2724C172.15 10.0249 173.175 8.9556 174.467 8.9556H184.669C185.471 8.9556 186.051 9.5348 186.051 10.2922V11.5843C186.051 12.3417 185.471 12.9209 184.669 12.9209H177.184Z" fill="#660099"/>
<path d="M198.036 20.1827C197.323 20.1827 196.788 19.6927 196.788 18.9352V17.5986C196.788 16.8858 197.323 16.3511 198.036 16.3511H202.535C203.516 16.3511 204.273 17.1531 204.273 18.1333V23.7916C204.273 24.3262 204.095 24.8163 203.56 25.1728C202.714 25.7965 200.263 26.7321 196.788 26.7321C190.952 26.7321 187.699 23.1678 187.699 17.866C187.699 12.3858 192.11 8.59879 197.234 8.59879C199.729 8.59879 201.511 9.04432 203.248 10.1582C203.961 10.6037 204.318 11.4502 203.783 12.2522L203.204 13.1433C202.758 13.9007 201.912 14.168 201.11 13.767C199.862 13.0987 198.659 12.8314 197.635 12.8314C194.605 12.8314 192.555 14.3017 192.555 17.9105C192.555 20.9847 194.293 22.7669 197.323 22.7669C198.169 22.7669 198.704 22.7223 199.595 22.4995V20.1827H198.036Z" fill="#660099"/>
<path d="M216.347 8.59918C221.426 8.59918 225.659 12.3862 225.659 17.6881C225.659 22.99 221.426 26.7325 216.347 26.7325C211.268 26.7325 207.035 22.9455 207.035 17.6881C207.035 12.4308 211.223 8.59918 216.347 8.59918ZM216.347 22.4108C218.887 22.4108 220.758 20.4505 220.758 17.6881C220.758 14.8812 218.887 12.9209 216.347 12.9209C213.763 12.9209 211.892 14.8812 211.892 17.6881C211.892 20.4505 213.763 22.4108 216.347 22.4108ZM219.911 4.23291C220.535 3.20818 220.134 2.45077 218.976 2.228L217.416 1.91612C216.659 1.78246 215.857 2.00523 215.501 2.8072L214.654 5.03488C214.342 5.97051 214.431 6.77247 215.679 7.0398L216.614 7.21801C217.372 7.30712 218.174 7.21801 218.575 6.41605L219.911 4.23291Z" fill="#660099"/>
<path d="M237.287 22.4557C238.623 22.4557 239.381 22.233 240.896 21.431C241.653 21.03 242.589 21.0746 243.034 21.8766L243.569 22.9013C244.014 23.7478 243.792 24.4607 243.123 24.9953C242.277 25.6191 240.227 26.6884 236.752 26.6884C231.673 26.6884 227.886 23.1241 227.886 17.8222C227.886 12.3421 232.119 8.55499 237.242 8.55499C239.559 8.55499 241.297 9.04508 242.99 10.1144C243.747 10.6045 244.014 11.4064 243.524 12.2084L242.945 13.0995C242.411 13.946 241.564 14.0351 240.807 13.6341C239.648 13.0104 238.624 12.7876 237.554 12.7876C234.836 12.7876 232.698 14.2133 232.698 17.5103C232.653 20.4063 234.525 22.4557 237.287 22.4557Z" fill="#660099"/>
<path d="M250.475 26.553H248.782C247.846 26.553 247 25.8847 247 24.9936V10.3354C247 9.39978 247.846 8.77603 248.782 8.77603H250.475C251.455 8.77603 252.257 9.44434 252.257 10.3354V24.949C252.257 25.8847 251.455 26.553 250.475 26.553Z" fill="#660099"/>
<path d="M264.689 8.59879C269.768 8.59879 274 12.3859 274 17.6877C274 22.9896 269.768 26.7321 264.689 26.7321C259.609 26.7321 255.377 22.9451 255.377 17.6877C255.377 12.4304 259.565 8.59879 264.689 8.59879ZM264.689 22.4104C267.228 22.4104 269.099 20.4501 269.099 17.6877C269.099 14.8809 267.228 12.9205 264.689 12.9205C262.104 12.9205 260.233 14.8809 260.233 17.6877C260.233 20.4501 262.104 22.4104 264.689 22.4104Z" fill="#660099"/>
</svg>
