<svg width="301" height="30" viewBox="0 0 301 30" fill="none" xmlns="http://www.w3.org/2000/svg">
<path d="M22.6555 11.7468C22.9002 12.3341 22.9002 12.8725 22.6555 13.4109C22.6555 13.4598 22.6065 13.5088 22.5576 13.6067L14.5797 27.7515C14.335 28.192 14.0413 28.5346 13.6498 28.7304C13.2093 28.9751 12.8177 29.1709 12.3772 29.1709H10.5174C10.0279 29.1709 9.58742 29.024 9.19587 28.7793C8.75537 28.5346 8.46171 28.192 8.26593 27.7515L0.288057 13.5577C0.239113 13.4598 0.190169 13.4109 0.190169 13.3619C-0.0545511 12.8236 -0.0545512 12.2852 0.141225 11.7468C0.385945 11.1595 0.728553 10.8169 1.26694 10.5721L3.32259 9.6422C3.90992 9.39748 4.49724 9.39748 5.08457 9.59325C5.6719 9.83797 6.06345 10.2785 6.35712 10.8658L11.3494 20.8993H11.4473L16.4396 10.8658C16.6843 10.2785 17.1248 9.88692 17.7121 9.6422C18.2995 9.39748 18.8868 9.39748 19.4741 9.6422L21.6277 10.5721C22.0682 10.8169 22.4597 11.2084 22.6555 11.7468Z" fill="#660099"/>
<path d="M32.3952 5.38384C32.1995 5.87328 31.9058 6.26484 31.5632 6.60744C31.2206 6.95005 30.7801 7.24372 30.3396 7.43949C29.8501 7.63527 29.3607 7.73316 28.8223 7.73316C28.2839 7.73316 27.7945 7.63527 27.354 7.43949C26.8646 7.24372 26.4241 6.999 26.0815 6.65639C25.7388 6.31378 25.4452 5.87328 25.2494 5.38384C25.0536 4.8944 24.9557 4.40496 24.9557 3.86658C24.9557 3.32819 25.0536 2.83875 25.2494 2.39826C25.4452 1.90882 25.7388 1.46832 26.0815 1.12571C26.4241 0.783104 26.8156 0.48944 27.3051 0.293664C27.7945 0.097888 28.2839 0 28.8223 0C29.3607 0 29.8501 0.097888 30.2906 0.293664C30.7801 0.48944 31.2206 0.783104 31.5632 1.12571C31.9058 1.46832 32.1995 1.90882 32.3952 2.34931C32.591 2.83875 32.6889 3.32819 32.6889 3.86658C32.6889 4.40496 32.591 4.8944 32.3952 5.38384ZM31.4653 10.3761C31.9547 10.8656 32.1995 11.4529 32.1995 12.0892V26.7234C32.1995 27.3597 31.9547 27.947 31.5142 28.3875C31.0248 28.877 30.4375 29.1217 29.8012 29.1217H27.8434C27.2072 29.1217 26.6198 28.877 26.1793 28.4365C25.6899 27.947 25.4452 27.3597 25.4452 26.7234V12.0892C25.4452 11.4529 25.6899 10.8656 26.1304 10.4251C26.6198 9.93564 27.2072 9.69092 27.8434 9.69092H29.8012C30.4375 9.69092 31.0248 9.93564 31.4653 10.3761Z" fill="#660099"/>
<path d="M57.5036 11.7467C57.7483 12.334 57.7483 12.8724 57.5036 13.4108C57.5036 13.4597 57.4547 13.5087 57.4057 13.6066L49.4278 27.8003C49.1831 28.2408 48.8894 28.5834 48.4979 28.7792C48.0574 29.0239 47.6658 29.2197 47.2253 29.2197H45.3655C44.876 29.2197 44.4355 29.0729 44.044 28.8282C43.6035 28.5834 43.3098 28.2408 43.1141 27.8003L35.1362 13.6066C35.0872 13.5087 35.0383 13.4597 35.0383 13.4108C34.7936 12.8724 34.7936 12.334 34.9893 11.7956C35.2341 11.2083 35.5767 10.8657 36.1151 10.621L38.2686 9.69104C38.8559 9.44632 39.4432 9.44632 40.0306 9.6421C40.6179 9.88682 41.0095 10.3273 41.3031 10.9146L46.2954 20.9482H46.3933L51.2877 10.8657C51.5324 10.2784 51.9729 9.88682 52.5602 9.6421C53.1476 9.39738 53.7349 9.39738 54.3222 9.6421L56.4758 10.572C56.9652 10.8168 57.3568 11.2083 57.5036 11.7467Z" fill="#660099"/>
<path d="M72.9212 10.2777C74.1448 10.8161 75.2216 11.5502 76.1026 12.4312C76.9836 13.3122 77.7177 14.389 78.2072 15.5636C78.7455 16.7872 78.9903 18.0598 78.9903 19.4791C78.9903 20.8496 78.7455 22.1711 78.2072 23.3457C77.6688 24.5693 76.9346 25.6461 76.0536 26.5271C75.1726 27.4081 74.0959 28.1422 72.9212 28.6317C71.6976 29.1701 70.4251 29.4148 69.0546 29.4148C67.6842 29.4148 66.4116 29.1701 65.188 28.6317C63.9644 28.0933 62.8877 27.3591 62.0067 26.4781C61.1257 25.5971 60.3915 24.5204 59.9021 23.3457C59.3637 22.1221 59.119 20.8496 59.119 19.4791C59.119 18.1087 59.3637 16.7872 59.9021 15.6126C60.4405 14.389 61.1746 13.3122 62.0556 12.4312C62.9366 11.5502 64.0134 10.8161 65.188 10.3266C66.4116 9.78823 67.6842 9.54351 69.0546 9.54351C70.4251 9.49456 71.7465 9.78823 72.9212 10.2777ZM70.5719 23.0031C71.0613 22.8073 71.5018 22.5137 71.8444 22.1711C72.187 21.8285 72.4807 21.388 72.6765 20.9475C72.8723 20.458 72.9702 19.9686 72.9702 19.4302C72.9702 18.8918 72.8723 18.4024 72.6765 17.9619C72.4807 17.4724 72.187 17.0319 71.8444 16.6893C71.5018 16.3467 71.0613 16.0531 70.6208 15.8573C70.1314 15.6615 69.642 15.5636 69.1036 15.5636C68.5652 15.5636 68.0757 15.6615 67.6352 15.8573C67.1458 16.0531 66.7053 16.3467 66.3627 16.6893C66.0201 17.0319 65.7264 17.4724 65.5307 17.9129C65.3349 18.4024 65.237 18.8918 65.237 19.4302C65.237 19.9686 65.3349 20.458 65.5307 20.8985C65.7264 21.388 66.0201 21.8285 66.3627 22.1711C66.7053 22.5137 67.1458 22.8073 67.5863 23.0031C68.0757 23.1989 68.5652 23.2968 69.1036 23.2968C69.593 23.2968 70.0824 23.1989 70.5719 23.0031Z" fill="#660099"/>
<path d="M97.9312 19.087C97.7843 18.6465 97.5396 17.9124 97.4417 17.374H97.3928C97.3928 17.8634 97.3438 18.6465 97.2949 19.087L96.8054 27.5054C96.7076 28.6311 95.8266 29.4142 94.7008 29.3163L93.1836 29.2184C92.1068 29.1205 91.4705 28.2885 91.5684 27.2117L93.0857 11.6475C93.1836 10.5218 94.0156 9.68977 95.1903 9.68977H96.8544C97.8822 9.68977 98.8611 9.98343 99.2526 11.0113L102.63 20.017H102.728L106.252 11.0113C106.741 9.8366 107.72 9.44505 108.993 9.59188L110.706 9.78766C111.635 9.88554 112.223 10.4239 112.321 11.7454L113.789 27.2607C113.887 28.2885 113.055 29.2184 111.929 29.2674L110.608 29.3163C109.482 29.3653 108.65 28.6311 108.552 27.5543L108.063 19.136C108.014 18.6955 108.014 17.9613 108.014 17.4229H107.965C107.867 17.9124 107.573 18.6955 107.377 19.136L105.322 24.0304C105.028 24.8135 104.392 25.5476 103.217 25.5476H101.847C100.966 25.5476 100.134 25.205 99.7421 24.1283L97.9312 19.087Z" fill="#660099"/>
<path d="M123.284 14.194V17.1306H128.619C129.402 17.1306 129.99 17.7179 129.99 18.501V19.9694C129.99 20.8014 129.402 21.3398 128.619 21.3398H123.284V24.6191H131.605C132.486 24.6191 133.122 25.2553 133.122 26.0874V27.5067C133.122 28.3388 132.486 28.9751 131.605 28.9751H119.907C118.732 28.9751 117.754 28.0451 117.754 26.8215V12.383C117.754 11.0126 118.879 9.83795 120.299 9.83795H131.556C132.437 9.83795 133.073 10.4742 133.073 11.3063V12.7257C133.073 13.5577 132.437 14.194 131.556 14.194H123.284Z" fill="#660099"/>
<path d="M148.49 11.3538C148.49 10.326 149.371 9.64081 150.399 9.64081H152.161C153.189 9.64081 154.119 10.375 154.119 11.3538V20.8C154.119 26.5754 150.595 29.3653 145.015 29.3653C139.436 29.3653 136.401 26.6244 136.401 20.8V11.3538C136.401 10.326 137.282 9.64081 138.31 9.64081H140.072C141.1 9.64081 141.981 10.375 141.981 11.3538V20.2127C141.981 23.2472 142.764 24.6177 145.162 24.6177C147.609 24.6177 148.392 23.2472 148.392 20.2127V11.3538H148.49Z" fill="#660099"/>
<path d="M171.494 27.4075C171.494 28.4353 170.613 29.1205 169.585 29.1205H168.362C167.285 29.1205 166.404 28.3864 166.404 27.4075V11.5496C166.404 10.5218 167.285 9.64081 168.362 9.64081H170.173C171.103 9.64081 171.69 9.93447 172.277 10.7665L179.227 20.8H179.325V11.3538C179.325 10.326 180.157 9.64081 181.234 9.64081H182.409C183.534 9.64081 184.366 10.375 184.366 11.3538V27.2607C184.366 28.2395 183.828 28.7779 183.192 28.9248L181.674 29.2184C180.353 29.5121 179.57 28.9248 178.885 27.9948L171.641 17.9613H171.543V27.4075H171.494Z" fill="#660099"/>
<path d="M194.645 14.194V17.1306H199.98C200.763 17.1306 201.35 17.7179 201.35 18.501V19.9694C201.35 20.8014 200.763 21.3398 199.98 21.3398H194.645V24.6191H202.965C203.846 24.6191 204.483 25.2553 204.483 26.0874V27.5067C204.483 28.3388 203.846 28.9751 202.965 28.9751H191.268C190.093 28.9751 189.114 28.0451 189.114 26.8215V12.383C189.114 11.0126 190.24 9.83795 191.659 9.83795H202.867C203.748 9.83795 204.385 10.4742 204.385 11.3063V12.7257C204.385 13.5577 203.748 14.194 202.867 14.194H194.645Z" fill="#660099"/>
<path d="M217.55 22.1717C216.767 22.1717 216.18 21.6333 216.18 20.8012V19.3329C216.18 18.5498 216.767 17.9625 217.55 17.9625H222.494C223.57 17.9625 224.403 18.8435 224.403 19.9203V26.1361C224.403 26.7235 224.207 27.2619 223.619 27.6534C222.689 28.3386 219.998 29.3664 216.18 29.3664C209.768 29.3664 206.195 25.4509 206.195 19.6266C206.195 13.6065 211.041 9.44623 216.669 9.44623C219.41 9.44623 221.368 9.93567 223.277 11.1593C224.06 11.6487 224.451 12.5786 223.864 13.4596L223.228 14.4385C222.738 15.2706 221.808 15.5642 220.927 15.1237C219.557 14.3896 218.236 14.0959 217.11 14.0959C213.782 14.0959 211.53 15.7111 211.53 19.6755C211.53 23.0527 213.439 25.0104 216.767 25.0104C217.697 25.0104 218.285 24.9615 219.263 24.7168V22.1717H217.55Z" fill="#660099"/>
<path d="M237.666 9.44654C243.246 9.44654 247.896 13.6068 247.896 19.4311C247.896 25.2555 243.246 29.3668 237.666 29.3668C232.087 29.3668 227.437 25.2065 227.437 19.4311C227.437 13.6557 232.038 9.44654 237.666 9.44654ZM237.666 24.6192C240.456 24.6192 242.512 22.4657 242.512 19.4311C242.512 16.3476 240.456 14.1941 237.666 14.1941C234.828 14.1941 232.772 16.3476 232.772 19.4311C232.772 22.4657 234.828 24.6192 237.666 24.6192ZM241.582 4.65002C242.267 3.52431 241.827 2.69226 240.554 2.44754L238.841 2.10494C238.009 1.9581 237.128 2.20282 236.737 3.08382L235.807 5.53102C235.464 6.55884 235.562 7.43983 236.932 7.7335L237.96 7.92927C238.792 8.02716 239.673 7.92927 240.114 7.04828L241.582 4.65002Z" fill="#660099"/>
<path d="M260.67 24.6685C262.138 24.6685 262.971 24.4238 264.635 23.5428C265.467 23.1023 266.494 23.1512 266.984 24.0322L267.571 25.1579C268.061 26.0879 267.816 26.871 267.082 27.4583C266.152 28.1435 263.9 29.3182 260.083 29.3182C254.503 29.3182 250.343 25.4026 250.343 19.5783C250.343 13.5582 254.993 9.39795 260.621 9.39795C263.166 9.39795 265.075 9.93633 266.935 11.111C267.767 11.6494 268.061 12.5304 267.522 13.4114L266.886 14.3902C266.299 15.3202 265.369 15.4181 264.537 14.9776C263.264 14.2924 262.138 14.0476 260.964 14.0476C257.978 14.0476 255.629 15.6138 255.629 19.2357C255.58 22.4171 257.636 24.6685 260.67 24.6685Z" fill="#660099"/>
<path d="M275.158 29.1695H273.298C272.27 29.1695 271.34 28.4353 271.34 27.4564V11.3538C271.34 10.326 272.27 9.64081 273.298 9.64081H275.158C276.234 9.64081 277.115 10.375 277.115 11.3538V27.4075C277.115 28.4353 276.234 29.1695 275.158 29.1695Z" fill="#660099"/>
<path d="M290.771 9.44623C296.35 9.44623 301 13.6065 301 19.4308C301 25.2552 296.35 29.3664 290.771 29.3664C285.191 29.3664 280.541 25.2062 280.541 19.4308C280.541 13.6554 285.142 9.44623 290.771 9.44623ZM290.771 24.6189C293.561 24.6189 295.616 22.4653 295.616 19.4308C295.616 16.3473 293.561 14.1938 290.771 14.1938C287.932 14.1938 285.876 16.3473 285.876 19.4308C285.876 22.4653 287.932 24.6189 290.771 24.6189Z" fill="#660099"/>
</svg>
