<svg width="23" height="19" viewBox="0 0 23 19" fill="none" xmlns="http://www.w3.org/2000/svg">
<path id="Shape" d="M6.97208 18.3712C15.3475 18.3712 19.9304 11.4258 19.9304 5.41294C19.9304 5.21754 19.9304 5.02215 19.9215 4.82675C20.8097 4.18727 21.5824 3.37904 22.1952 2.46423C21.3781 2.82838 20.4988 3.06819 19.5751 3.18365C20.5166 2.6241 21.236 1.72706 21.5824 0.661263C20.7031 1.18528 19.7261 1.55831 18.687 1.76259C17.8521 0.874422 16.6708 0.323761 15.3652 0.323761C12.8517 0.323761 10.8089 2.36654 10.8089 4.88004C10.8089 5.2353 10.8534 5.58169 10.9244 5.91919C7.14083 5.73268 3.78358 3.91194 1.53652 1.15863C1.14573 1.83364 0.92369 2.61522 0.92369 3.4501C0.92369 5.03103 1.73192 6.42544 2.9487 7.24255C2.20265 7.21591 1.501 7.01163 0.888163 6.67413C0.888163 6.69189 0.888163 6.70966 0.888163 6.7363C0.888163 8.93895 2.46021 10.7863 4.53852 11.2038C4.15661 11.3103 3.75693 11.3636 3.33949 11.3636C3.0464 11.3636 2.76219 11.337 2.48686 11.2837C3.06416 13.0956 4.75167 14.41 6.74116 14.4456C5.17799 15.6712 3.21515 16.3995 1.08356 16.3995C0.719412 16.3995 0.355265 16.3818 0 16.3373C2.00725 17.6163 4.40529 18.3712 6.97208 18.3712Z" fill="black"/>
</svg>
